<mxfile host="65bd71144e">
    <diagram id="x-hzX1FmE42jnEq8zI3b" name="Automat">
        <mxGraphModel dx="977" dy="897" grid="1" gridSize="10" guides="1" tooltips="1" connect="1" arrows="1" fold="1" page="1" pageScale="1" pageWidth="850" pageHeight="1100" math="0" shadow="0">
            <root>
                <mxCell id="0"/>
                <mxCell id="1" parent="0"/>
                <mxCell id="2" value="&lt;pre&gt;&lt;font&gt;&lt;div&gt;&lt;font&gt;&lt;pre&gt;&lt;font&gt;&lt;div&gt;&lt;span style=&quot;font-size: 20px&quot;&gt;&amp;lt;S'&amp;gt; → • &amp;lt;S&amp;gt; ─┤&lt;br/&gt;&amp;lt;S&amp;gt; → • &amp;lt;A&amp;gt; &amp;lt;B&amp;gt;&lt;br/&gt;&amp;lt;A&amp;gt; → • a &amp;lt;B&amp;gt;&lt;br/&gt;&lt;/span&gt;&lt;/div&gt;&lt;/font&gt;&lt;/pre&gt;&lt;/font&gt;&lt;/div&gt;&lt;/font&gt;&lt;/pre&gt;" style="rounded=0;whiteSpace=wrap;html=1;align=left;" parent="1" vertex="1">
                    <mxGeometry x="120" y="80" width="200" height="80" as="geometry"/>
                </mxCell>
                <mxCell id="3" value="&lt;pre&gt;&lt;font style=&quot;font-size: 20px&quot;&gt;∇&lt;/font&gt;&lt;/pre&gt;" style="rounded=0;whiteSpace=wrap;html=1;" parent="1" vertex="1">
                    <mxGeometry x="120" y="40" width="80" height="40" as="geometry"/>
                </mxCell>
                <mxCell id="4" value="&lt;pre&gt;&lt;font&gt;&lt;div&gt;&lt;font&gt;&lt;pre&gt;&lt;font&gt;&lt;div&gt;&lt;span style=&quot;font-size: 20px&quot;&gt;&amp;lt;S'&amp;gt; → &amp;lt;S&amp;gt; • ─┤&lt;br&gt;&lt;/span&gt;&lt;/div&gt;&lt;/font&gt;&lt;/pre&gt;&lt;/font&gt;&lt;/div&gt;&lt;/font&gt;&lt;/pre&gt;" style="rounded=0;whiteSpace=wrap;html=1;align=left;" parent="1" vertex="1">
                    <mxGeometry x="400" y="80" width="200" height="40" as="geometry"/>
                </mxCell>
                <mxCell id="5" value="&lt;pre&gt;&lt;font style=&quot;font-size: 20px&quot;&gt;&amp;lt;S&amp;gt;&lt;sub&gt;0&lt;/sub&gt;&lt;/font&gt;&lt;/pre&gt;" style="rounded=0;whiteSpace=wrap;html=1;" parent="1" vertex="1">
                    <mxGeometry x="400" y="40" width="80" height="40" as="geometry"/>
                </mxCell>
                <mxCell id="6" value="&lt;pre&gt;&lt;font&gt;&lt;div&gt;&lt;font&gt;&lt;pre&gt;&lt;font&gt;&lt;div&gt;&lt;span style=&quot;font-size: 20px&quot;&gt;&amp;lt;S'&amp;gt; → &amp;lt;S&amp;gt; ─┤ &lt;/span&gt;&lt;span style=&quot;font-size: 20px&quot;&gt;•&lt;/span&gt;&lt;/div&gt;&lt;/font&gt;&lt;/pre&gt;&lt;/font&gt;&lt;/div&gt;&lt;/font&gt;&lt;/pre&gt;" style="rounded=0;whiteSpace=wrap;html=1;align=left;" parent="1" vertex="1">
                    <mxGeometry x="680" y="80" width="200" height="40" as="geometry"/>
                </mxCell>
                <mxCell id="7" value="&lt;pre&gt;&lt;span style=&quot;font-family: monospace ; font-size: 20px ; text-align: left&quot;&gt;─┤&lt;/span&gt;&lt;span style=&quot;vertical-align: sub ; font-size: 20px&quot;&gt;0&lt;/span&gt;&lt;/pre&gt;" style="rounded=0;whiteSpace=wrap;html=1;" parent="1" vertex="1">
                    <mxGeometry x="680" y="40" width="80" height="40" as="geometry"/>
                </mxCell>
                <mxCell id="8" value="&amp;lt;S&amp;gt;" style="endArrow=classic;html=1;fontSize=20;exitX=1;exitY=0.25;exitDx=0;exitDy=0;entryX=0;entryY=0.5;entryDx=0;entryDy=0;" parent="1" source="2" target="4" edge="1">
                    <mxGeometry width="50" height="50" relative="1" as="geometry">
                        <mxPoint x="400" y="210" as="sourcePoint"/>
                        <mxPoint x="450" y="160" as="targetPoint"/>
                    </mxGeometry>
                </mxCell>
                <mxCell id="9" value="─┤" style="endArrow=classic;html=1;fontSize=20;exitX=1;exitY=0.5;exitDx=0;exitDy=0;entryX=0;entryY=0.5;entryDx=0;entryDy=0;" parent="1" source="4" target="6" edge="1">
                    <mxGeometry y="10" width="50" height="50" relative="1" as="geometry">
                        <mxPoint x="640" y="190" as="sourcePoint"/>
                        <mxPoint x="690" y="140" as="targetPoint"/>
                        <mxPoint as="offset"/>
                    </mxGeometry>
                </mxCell>
                <mxCell id="25" value="&amp;lt;B&amp;gt;" style="edgeStyle=none;html=1;exitX=0.75;exitY=1;exitDx=0;exitDy=0;fontSize=20;entryX=0.75;entryY=0;entryDx=0;entryDy=0;" parent="1" source="10" target="20" edge="1">
                    <mxGeometry relative="1" as="geometry">
                        <mxPoint x="270.28571428571445" y="470" as="targetPoint"/>
                    </mxGeometry>
                </mxCell>
                <mxCell id="10" value="&lt;pre&gt;&lt;font&gt;&lt;font&gt;&lt;pre&gt;&lt;font&gt;&lt;div&gt;&lt;span style=&quot;font-size: 20px&quot;&gt;&amp;lt;A&amp;gt; → a • &amp;lt;B&amp;gt;&lt;br&gt;&amp;lt;B&amp;gt; → • &amp;lt;S&amp;gt; b&lt;br&gt;&amp;lt;B&amp;gt; → •&lt;br&gt;&amp;lt;S&amp;gt; → • &amp;lt;A&amp;gt; &amp;lt;B&amp;gt;&lt;br&gt;&amp;lt;A&amp;gt; → • a &amp;lt;B&amp;gt;&lt;/span&gt;&lt;/div&gt;&lt;/font&gt;&lt;/pre&gt;&lt;/font&gt;&lt;/font&gt;&lt;/pre&gt;" style="rounded=0;whiteSpace=wrap;html=1;align=left;" parent="1" vertex="1">
                    <mxGeometry x="120" y="230" width="200" height="120" as="geometry"/>
                </mxCell>
                <mxCell id="11" value="&lt;pre&gt;&lt;font style=&quot;font-size: 20px&quot;&gt;a&lt;sub&gt;2&lt;/sub&gt;&lt;/font&gt;&lt;/pre&gt;" style="rounded=0;whiteSpace=wrap;html=1;" parent="1" vertex="1">
                    <mxGeometry x="120" y="190" width="80" height="40" as="geometry"/>
                </mxCell>
                <mxCell id="24" value="&amp;lt;B&amp;gt;" style="edgeStyle=none;html=1;exitX=0.75;exitY=1;exitDx=0;exitDy=0;entryX=0.75;entryY=0;entryDx=0;entryDy=0;fontSize=20;" parent="1" source="12" target="22" edge="1">
                    <mxGeometry relative="1" as="geometry"/>
                </mxCell>
                <mxCell id="28" value="&amp;lt;S&amp;gt;" style="edgeStyle=none;html=1;exitX=1;exitY=0.25;exitDx=0;exitDy=0;entryX=0;entryY=0.5;entryDx=0;entryDy=0;fontSize=20;" parent="1" source="12" target="26" edge="1">
                    <mxGeometry relative="1" as="geometry"/>
                </mxCell>
                <mxCell id="12" value="&lt;pre&gt;&lt;font&gt;&lt;font&gt;&lt;pre&gt;&lt;span style=&quot;font-size: 20px&quot;&gt;&amp;lt;S&amp;gt; → &amp;lt;A&amp;gt; • &amp;lt;B&amp;gt;&lt;br/&gt;&amp;lt;B&amp;gt; → • &amp;lt;S&amp;gt; b&lt;br/&gt;&amp;lt;B&amp;gt; → •&lt;br/&gt;&amp;lt;S&amp;gt; → • &amp;lt;A&amp;gt; &amp;lt;B&amp;gt;&lt;br/&gt;&amp;lt;A&amp;gt; → • a &amp;lt;B&amp;gt;&lt;/span&gt;&lt;br&gt;&lt;/pre&gt;&lt;/font&gt;&lt;/font&gt;&lt;/pre&gt;" style="rounded=0;whiteSpace=wrap;html=1;align=left;" parent="1" vertex="1">
                    <mxGeometry x="400" y="200" width="200" height="120" as="geometry"/>
                </mxCell>
                <mxCell id="13" value="&lt;pre&gt;&lt;font style=&quot;font-size: 20px&quot;&gt;&amp;lt;A&amp;gt;&lt;sub&gt;1&lt;/sub&gt;&lt;/font&gt;&lt;/pre&gt;" style="rounded=0;whiteSpace=wrap;html=1;" parent="1" vertex="1">
                    <mxGeometry x="400" y="160" width="80" height="40" as="geometry"/>
                </mxCell>
                <mxCell id="14" value="&amp;lt;A&amp;gt;" style="endArrow=classic;html=1;fontSize=20;exitX=1;exitY=0.75;exitDx=0;exitDy=0;entryX=0;entryY=0.5;entryDx=0;entryDy=0;" parent="1" source="2" target="12" edge="1">
                    <mxGeometry width="50" height="50" relative="1" as="geometry">
                        <mxPoint x="420" y="350" as="sourcePoint"/>
                        <mxPoint x="470" y="300" as="targetPoint"/>
                        <Array as="points">
                            <mxPoint x="360" y="140"/>
                            <mxPoint x="360" y="260"/>
                        </Array>
                    </mxGeometry>
                </mxCell>
                <mxCell id="15" value="a" style="endArrow=classic;html=1;fontSize=20;exitX=0.5;exitY=1;exitDx=0;exitDy=0;entryX=0.5;entryY=0;entryDx=0;entryDy=0;" parent="1" source="2" target="10" edge="1">
                    <mxGeometry width="50" height="50" relative="1" as="geometry">
                        <mxPoint x="260" y="230" as="sourcePoint"/>
                        <mxPoint x="310" y="180" as="targetPoint"/>
                    </mxGeometry>
                </mxCell>
                <mxCell id="16" value="a" style="endArrow=classic;html=1;fontSize=20;exitX=0;exitY=0.75;exitDx=0;exitDy=0;entryX=1;entryY=0.5;entryDx=0;entryDy=0;" parent="1" source="12" target="10" edge="1">
                    <mxGeometry width="50" height="50" relative="1" as="geometry">
                        <mxPoint x="360" y="410" as="sourcePoint"/>
                        <mxPoint x="410" y="360" as="targetPoint"/>
                    </mxGeometry>
                </mxCell>
                <mxCell id="17" value="a" style="endArrow=classic;html=1;fontSize=20;exitX=0.5;exitY=1;exitDx=0;exitDy=0;entryX=0.25;entryY=1;entryDx=0;entryDy=0;" parent="1" source="10" target="10" edge="1">
                    <mxGeometry width="50" height="50" relative="1" as="geometry">
                        <mxPoint x="260" y="430" as="sourcePoint"/>
                        <mxPoint x="310" y="380" as="targetPoint"/>
                        <Array as="points">
                            <mxPoint x="220" y="400"/>
                            <mxPoint x="170" y="400"/>
                        </Array>
                    </mxGeometry>
                </mxCell>
                <mxCell id="18" value="&amp;lt;A&amp;gt;" style="endArrow=classic;html=1;fontSize=20;exitX=0.5;exitY=1;exitDx=0;exitDy=0;entryX=0.25;entryY=1;entryDx=0;entryDy=0;" parent="1" source="12" target="12" edge="1">
                    <mxGeometry width="50" height="50" relative="1" as="geometry">
                        <mxPoint x="560" y="440" as="sourcePoint"/>
                        <mxPoint x="610" y="390" as="targetPoint"/>
                        <Array as="points">
                            <mxPoint x="500" y="360"/>
                            <mxPoint x="450" y="360"/>
                        </Array>
                    </mxGeometry>
                </mxCell>
                <mxCell id="20" value="&lt;pre&gt;&lt;font&gt;&lt;font&gt;&lt;pre&gt;&lt;font&gt;&lt;span style=&quot;font-size: 20px&quot;&gt;&amp;lt;A&amp;gt; → a &amp;lt;B&amp;gt; •&lt;br&gt;&lt;/span&gt;&lt;/font&gt;&lt;/pre&gt;&lt;/font&gt;&lt;/font&gt;&lt;/pre&gt;" style="rounded=0;whiteSpace=wrap;html=1;align=left;" parent="1" vertex="1">
                    <mxGeometry x="120" y="480" width="200" height="40" as="geometry"/>
                </mxCell>
                <mxCell id="21" value="&lt;pre&gt;&lt;font style=&quot;font-size: 20px&quot;&gt;&amp;lt;B&amp;gt;&lt;sub&gt;2&lt;/sub&gt;&lt;/font&gt;&lt;/pre&gt;" style="rounded=0;whiteSpace=wrap;html=1;" parent="1" vertex="1">
                    <mxGeometry x="120" y="440" width="80" height="40" as="geometry"/>
                </mxCell>
                <mxCell id="22" value="&lt;pre&gt;&lt;font&gt;&lt;font&gt;&lt;pre&gt;&lt;font&gt;&lt;span style=&quot;font-size: 20px&quot;&gt;&amp;lt;S&amp;gt; → &amp;lt;A&amp;gt; &amp;lt;B&amp;gt; •&lt;br&gt;&lt;/span&gt;&lt;/font&gt;&lt;/pre&gt;&lt;/font&gt;&lt;/font&gt;&lt;/pre&gt;" style="rounded=0;whiteSpace=wrap;html=1;align=left;" parent="1" vertex="1">
                    <mxGeometry x="400" y="440" width="200" height="40" as="geometry"/>
                </mxCell>
                <mxCell id="23" value="&lt;pre&gt;&lt;font style=&quot;font-size: 20px&quot;&gt;&amp;lt;B&amp;gt;&lt;sub&gt;1&lt;/sub&gt;&lt;/font&gt;&lt;/pre&gt;" style="rounded=0;whiteSpace=wrap;html=1;" parent="1" vertex="1">
                    <mxGeometry x="400" y="400" width="80" height="40" as="geometry"/>
                </mxCell>
                <mxCell id="31" value="b" style="edgeStyle=none;html=1;entryX=0.5;entryY=0;entryDx=0;entryDy=0;fontSize=20;" parent="1" source="26" target="29" edge="1">
                    <mxGeometry relative="1" as="geometry"/>
                </mxCell>
                <mxCell id="26" value="&lt;pre&gt;&lt;font&gt;&lt;div&gt;&lt;font&gt;&lt;pre&gt;&lt;font&gt;&lt;div&gt;&lt;span style=&quot;font-size: 20px&quot;&gt;&amp;lt;B&amp;gt; → &amp;lt;S&amp;gt; • b&lt;br&gt;&lt;/span&gt;&lt;/div&gt;&lt;/font&gt;&lt;/pre&gt;&lt;/font&gt;&lt;/div&gt;&lt;/font&gt;&lt;/pre&gt;" style="rounded=0;whiteSpace=wrap;html=1;align=left;" parent="1" vertex="1">
                    <mxGeometry x="680" y="210" width="200" height="40" as="geometry"/>
                </mxCell>
                <mxCell id="27" value="&lt;pre&gt;&lt;font style=&quot;font-size: 20px&quot;&gt;&amp;lt;S&amp;gt;&lt;sub&gt;3&lt;/sub&gt;&lt;/font&gt;&lt;/pre&gt;" style="rounded=0;whiteSpace=wrap;html=1;" parent="1" vertex="1">
                    <mxGeometry x="680" y="170" width="80" height="40" as="geometry"/>
                </mxCell>
                <mxCell id="29" value="&lt;pre&gt;&lt;font&gt;&lt;div&gt;&lt;font&gt;&lt;pre&gt;&lt;font&gt;&lt;div&gt;&lt;span style=&quot;font-size: 20px&quot;&gt;&amp;lt;B&amp;gt; → &amp;lt;S&amp;gt; b •&lt;br&gt;&lt;/span&gt;&lt;/div&gt;&lt;/font&gt;&lt;/pre&gt;&lt;/font&gt;&lt;/div&gt;&lt;/font&gt;&lt;/pre&gt;" style="rounded=0;whiteSpace=wrap;html=1;align=left;" parent="1" vertex="1">
                    <mxGeometry x="680" y="320" width="200" height="40" as="geometry"/>
                </mxCell>
                <mxCell id="30" value="&lt;pre&gt;&lt;font style=&quot;font-size: 20px&quot;&gt;b&lt;sub&gt;3&lt;/sub&gt;&lt;/font&gt;&lt;/pre&gt;" style="rounded=0;whiteSpace=wrap;html=1;" parent="1" vertex="1">
                    <mxGeometry x="680" y="280" width="80" height="40" as="geometry"/>
                </mxCell>
                <mxCell id="32" value="&amp;lt;S&amp;gt;" style="endArrow=classic;html=1;fontSize=20;exitX=1;exitY=0.75;exitDx=0;exitDy=0;entryX=0;entryY=0.75;entryDx=0;entryDy=0;" parent="1" source="10" target="26" edge="1">
                    <mxGeometry width="50" height="50" relative="1" as="geometry">
                        <mxPoint x="330" y="440" as="sourcePoint"/>
                        <mxPoint x="380" y="390" as="targetPoint"/>
                        <Array as="points">
                            <mxPoint x="360" y="320"/>
                            <mxPoint x="360" y="520"/>
                            <mxPoint x="640" y="520"/>
                            <mxPoint x="640" y="240"/>
                        </Array>
                    </mxGeometry>
                </mxCell>
                <mxCell id="33" value="&amp;lt;A&amp;gt;" style="endArrow=classic;html=1;fontSize=20;entryX=0;entryY=0.5;entryDx=0;entryDy=0;exitX=1;exitY=0.25;exitDx=0;exitDy=0;" parent="1" source="10" target="12" edge="1">
                    <mxGeometry x="-0.5" y="20" width="50" height="50" relative="1" as="geometry">
                        <mxPoint x="270" y="220" as="sourcePoint"/>
                        <mxPoint x="320" y="170" as="targetPoint"/>
                        <mxPoint as="offset"/>
                    </mxGeometry>
                </mxCell>
            </root>
        </mxGraphModel>
    </diagram>
</mxfile>
